<?xml version="1.0" encoding="utf-8"?>
<!-- Generator: Adobe Illustrator 14.0.0, SVG Export Plug-In . SVG Version: 6.00 Build 43363)  -->
<!DOCTYPE svg PUBLIC "-//W3C//DTD SVG 1.1//EN" "http://www.w3.org/Graphics/SVG/1.1/DTD/svg11.dtd">
<svg version="1.1" id="레이어_1" xmlns="http://www.w3.org/2000/svg" xmlns:xlink="http://www.w3.org/1999/xlink" x="0px"
	 y="0px" width="600px" height="400px" viewBox="0 0 600 400" enable-background="new 0 0 600 400" xml:space="preserve">
<g>
	<g>
		<g>
			<g>
				<g>
					<path fill="#5B554F" d="M120.769,131.511c-3.332-13.819-2.068-22.893,3.694-37.415c1.649-3.933,5.691-11.645,12.317-20.194
						c6.521-8.543,15.486-18.098,23.934-27.073c16.723-17.648,39.904-20.66,39.511-20.657c-0.411,0.586,22.588-6.327,44.066,4.912
						c10.675,5.196,20.433,13.479,26.896,21.739c6.686,8.194,9.343,16.344,10.778,20.455c4.516,15.331,6.293,25.256,12.623,38.061
						c-1.526-14.096-0.39-23.521-5.182-40.402c-1.449-4.371-4.639-13.9-12.053-22.979c-7.175-9.159-17.776-18.158-29.604-23.92
						c-11.614-6.019-25.041-7.846-33.988-7.151c-9.155,0.282-14.978,1.683-14.977,1.618c0.495,0.002-24.981,3.198-43.685,22.837
						c-8.675,9.206-17.625,18.718-24.558,27.783c-6.961,8.977-11.434,17.462-13.251,21.9
						C110.618,107.417,112.72,120.006,120.769,131.511z"/>
				</g>
			</g>
		</g>
	</g>
	<g>
		<g>
			<g>
				<g>
					<path fill="#5B554F" d="M116.477,116.918c-10.727-1.409-20.063-1.461-29.847,0.776c-4.853,1.213-9.955,3.022-14.76,6.908
						c-5.093,3.929-7.819,11.066-8.564,17.754c-0.428,3.675-0.941,10.471,3.657,17.229c4.582,6.693,12.954,10.593,21.424,12.695
						c16.88,5.042,37.591,6.04,56.798,6.062c19.191,0.125,37.764-0.214,51.448-2.016c13.688-1.653,22.372-4.141,22.316-4.103
						c-0.05-0.112,8.64-1.95,21.633-5.871c13.051-3.608,30.552-9.697,48.813-13.949c18.417-3.833,39.005-7.158,55.024-15.056
						c8.035-3.835,15.282-9.822,18.094-17.296c2.945-6.97,1.496-14.85-1.458-18.157c-21.53-19.768-38.896-19.116-60.029-16.735
						c10.75,1.208,19.764,2.396,28.229,5.628c7.794,3.844,18.865,7.563,25.385,15.545c3.999,3.216,1.851,17.625-13.704,23.974
						c-14.717,7.256-34.18,10.485-53.235,14.433c-19.126,4.478-36.292,10.508-49.3,14.105c-12.901,3.903-21.313,5.678-21.298,5.8
						c-0.046-0.013-8.224,2.333-21.411,3.919c-13.161,1.727-31.296,2.062-50.474,1.928c-19.087-0.03-38.868-1.036-54.724-5.78
						c-7.909-1.906-14.288-5.357-17.086-9.59c-2.904-4.164-2.71-8.817-2.358-11.823c0.824-12.251,8.644-16.582,17.289-20.142
						C96.864,119.917,105.738,117.985,116.477,116.918z"/>
				</g>
			</g>
		</g>
	</g>
	<g>
		<g>
			<g>
				<g>
					<path fill="#5B554F" d="M149.952,174.429c-2.135,15.714,3.193,26.123,10.743,42.57c6.431,22.521,88.018,81.513,93.648,73.46
						c-0.165-0.436,7.023,2.288,17.486-2.385c10.264-4.87,18.246-17.01,23.555-29.697c10.141-25.854,16.677-54.419,18.096-64.673
						c2.183-18.071,0.409-31.123-10.31-42.451c6.208,13.999,4.519,24.049,2.589,41.33c-1.236,9.117-7.994,38.274-17.592,62.708
						c-4.965,12.059-12.351,22.402-19.764,25.755c-7.222,3.353-13.188,1.388-13.056,1.679c0.032,0.015-5.537-0.463-13.698-4.281
						c-8.024-3.756-18.355-11.571-29.183-19.472c-10.668-7.983-21.482-16.985-29.501-25.338
						c-8.144-8.354-13.22-16.319-15.444-20.405C160.131,197.129,152.771,189.327,149.952,174.429z"/>
				</g>
			</g>
		</g>
	</g>
	<g>
		<g>
			<g>
				<g>
					<path fill="#5B554F" d="M251.24,170.138c-0.188,3.145,0.112,5.406,2.438,7.014c2.604,2.515,15.754,7.061,15.376,7.037
						c0.005-0.057,2.807,1.372,6.311,2.86l0.056,0.006c0.438,0.392-1.903-1.245-1.697-2.559c-0.389-1.853,1.16-3.245,0.604-2.634
						c-0.173,0.173-0.556,0.593-0.93,1.003c-0.697,0.751-1.405,1.749-1.873,2.305c-0.574,0.81-1.538,1.609-2.028,2.095
						c-2.002,1.716-2.776,5.207-0.66,7.767c3.077-1.517,4.212-0.396,5.888-1.976c0.467-0.452,1.67-1.324,3.073-3.157
						c0.586-0.707,0.904-1.187,1.457-1.795c0.247-0.272,0.493-0.544,0.968-1.05c-0.248,0.305,1.657-1.549,1.257-3.784
						c0.038-1.47-2.389-3.369-2.187-3.044l-0.582-0.277c-3.337-1.394-6.579-2.989-6.619-2.944
						c-0.271-0.208-12.697-4.733-14.048-6.316C256.201,169.551,254.553,169.734,251.24,170.138z"/>
				</g>
			</g>
		</g>
	</g>
	<g>
		<g>
			<g>
				<g>
					<path fill="#5B554F" d="M182.571,237.949c-13.083-1.659-22.604,1.124-36.636,6.51c-4.038,1.574-10.989,4.184-21.102,5.846
						c-4.992,1.002-10.542,2.114-16.266,3.979c-2.859,0.914-5.775,2.11-8.627,3.729c-1.426,0.787-2.833,1.771-4.157,2.913
						l-0.979,0.899l-0.484,0.453c-0.552,10.179-0.137,2.841-0.252,5.121l0.028,0.033l0.057,0.065l0.114,0.132l0.229,0.264
						c0.609,0.717,1.234,1.401,1.893,1.943c10.641,8.244,21.577,10.077,28.876,13.122c7.081,2.881,12.163,5.122,12.076,5.044
						c-0.135,0.264,19.654,7.281,39.007,18.354c18.941,11.516,38.337,28.067,46.179,31.815c13.568,7.935,23.469,10.011,36.438,8.788
						c-12.503-3.826-19.591-7.941-32.42-15.475c-7.317-3.49-26.046-19.586-46.204-31.887c-20.439-11.646-40.129-18.51-39.981-18.789
						c-0.116-0.004-4.543-1.99-12.388-5.188c-7.492-2.92-18.799-5.604-26.328-11.616c-0.456-0.364-0.78-0.753-1.107-1.129
						l-0.128-0.142l-0.064-0.068l-0.032-0.035l-0.017-0.018c-0.125,2.264,0.255-5.092-0.282,5.07l0.311-0.275l0.614-0.561
						c0.854-0.731,1.824-1.435,2.926-2.033c2.169-1.229,4.61-2.265,7.167-3.072c5.095-1.663,10.402-2.75,15.341-3.739
						c9.953-1.598,18.702-4.735,22.359-6.266C163.192,246.118,169.945,241.342,182.571,237.949z"/>
				</g>
			</g>
		</g>
	</g>
	<g>
		<g>
			<g>
				<g>
					<path fill="#5B554F" d="M306.176,203.615c14.518,2.373,24.957,3.199,42.284,0.506c4.838-0.585,14.403-2.482,25.596-5.806
						c5.791-1.396,11.887-4.396,17.564-6.279c2.866-0.984,5.889-1.759,8.201-1.746c0.506,0.05,1.021,0.085,1.291,0.202l0.128,0.024
						l0.031,0.005c2.204,3.062-2.981-4.171-2.449-3.412v0.031l-0.003,0.127l-0.012,0.506l-0.01,1.011
						c-0.055,1.354-0.213,2.755-0.555,4.157c-2.778,11.398-10.309,21.665-15.299,29.067c-5.245,7.408-8.698,12.521-8.644,12.441
						c0.313-0.114-13.9,19.313-28.228,40.734c-7.391,10.517-16.053,20.642-24.242,28.36c-8.25,7.258-15.862,14.396-18.795,17.851
						c-12.005,12.942-17.008,20.914-27.764,31.146c13.538-6.014,21.703-13.268,33.431-25.787c3.274-3.699,9.458-9.509,18.516-17.492
						c8.603-8.09,17.683-18.736,25.243-29.517c14.595-21.843,28.318-40.611,28.313-40.946c0.055-0.081,3.226-4.769,8.58-12.318
						c5.071-7.688,12.998-17.819,16.559-31.876c0.418-1.753,0.656-3.631,0.729-5.539l0.016-1.449l0.002-0.725l0.001-0.181v-0.045
						c0.544,0.725-4.691-6.498-2.505-3.448l-0.115-0.037l-0.465-0.144c-1.287-0.438-2.421-0.521-3.551-0.598
						c-4.285,0.015-7.666,1.092-10.911,2.149c-6.586,2.215-11.813,4.886-17.276,6.191c-10.915,3.242-19.945,5.04-24.482,5.621
						C330.224,199.175,320.788,200.989,306.176,203.615z"/>
				</g>
			</g>
		</g>
	</g>
	<g>
		<g>
			<g>
				<g>
					<path fill="#5B554F" d="M106.176,274.859c-7.604-2.756-13.908-2.575-22.758,0.721c-4.806,1.88-18.968,8.258-29.292,18.768
						c-10.566,11.317-12.582,24.651-12.905,24.401c0.017,0.255-3.684,11.858-4.958,26.362c-1.431,14.869,6.118,29.886,8.633,33.975
						c2.439,4.234,4.469,6.771,6.149,9.352c1.749,2.715,3.896,5.896,7.062,8.312c-1.12-3.931-1.052-6.862-1.753-10.452
						c-0.761-3.759-2.573-7.288-4.631-10.982c-2.386-4.117-8.84-16.885-7.622-29.784c1.061-12.646,4.721-24.895,4.612-24.612
						c0.167,0.284,2.568-12.294,11.034-21.09c8.893-9.109,22.325-15.334,26.576-17.006
						C94.482,279.745,98.533,277.146,106.176,274.859z"/>
				</g>
			</g>
		</g>
	</g>
	<g>
		<g>
			<g>
				<g>
					<path fill="#5B554F" d="M386.005,225.934c9.012,5.996,13.652,10.963,23.088,18.854c10.386,7.796,56.517,59.384,58.329,57.882
						c-0.298,0.271,14.049,10.372,25.914,23.876c11.361,14.12,20.615,32.678,22.886,38.51c4.23,11.223,6.676,18.586,13.132,27.402
						c-1.815-10.646-1.324-17.734-5.853-30.208c-2.667-6.86-11.845-25.413-24.152-40.75c-13.114-14.813-27.198-24.476-26.906-24.801
						c-1.412,1.862-46.634-49.021-58.264-57.825C404.273,230.662,396.812,227.221,386.005,225.934z"/>
				</g>
			</g>
		</g>
	</g>
	<g>
		<g>
			<g>
				<g>
					<path fill="#5B554F" d="M224.631,280.868c-2.079,2.948-3.175,5.229-2.356,8.604c0.071,4.068,8.747,20.566,9.202,20.188
						c0.413,0.183,9.18,14.318,11.848,17.788c2.165,2.762,5.269,3.588,8.776,2.776c-1.074-3.642-0.842-5.235-2.637-7.589
						c-1.554-2.112-11.46-17.663-11.44-17.219c-0.499,0.192-8.083-14.538-8.196-17.896
						C229.011,284.633,227.507,283.264,224.631,280.868z"/>
				</g>
			</g>
		</g>
	</g>
	<g>
		<g>
			<g>
				<g>
					<path fill="#5B554F" d="M293.3,267.992c-2.235,3.627-3.415,6.003-3.301,10.055c0.647,4.465-0.508,26.143-1.035,26.034
						c-0.041-0.019-0.752,5.34-2.478,10.877c-1.62,5.597-4.596,11.053-5.715,12.757c-2.021,3.2-2.3,5.538-2.922,9.807
						c4.133-0.724,7-1.877,9.488-5.596c1.396-1.98,4.867-8.396,6.654-14.669c1.917-6.231,2.639-12.022,2.687-12.014
						c0.578-0.011,1.929-23.038,1.114-27.522C297.552,273.531,296.033,271.239,293.3,267.992z"/>
				</g>
			</g>
		</g>
	</g>
	<g>
		<g>
			<g>
				<g>
					<path fill="#5B554F" d="M204.888,328.078c-0.295,4.693-1.083,7.053-0.145,11.5c0.502,2.105,1.515,10.553,4.76,17.376
						c2.959,6.903,6.487,12.373,6.437,12.41c-0.025-0.021,13.017,22.212,17.383,26.239c3.304,3.67,7.237,5.263,11.909,4.147
						c-2.835-3.661-3.053-6.005-6.04-9.287c-3.382-3.022-16.563-25.043-16.531-25.06c0.056-0.01-3.347-5.413-5.923-11.499
						c-2.876-6.024-3.639-13.095-4.358-15.923C211.298,333.212,208.996,330.324,204.888,328.078z"/>
				</g>
			</g>
		</g>
	</g>
	<g>
		<g>
			<g>
				<g>
					<path fill="#5B554F" d="M319.051,310.911c-2.556,4.146-3.908,7.128-3.79,12.233c0.144,5.647,1.924,32.698,1.57,32.604
						c-0.132,0.09,0.519,6.593-1.778,12.672c-2.196,6.138-7.74,11.657-9.566,13.515c-3.442,3.401-4.694,6.289-6.178,10.948
						c4.792-0.937,7.845-1.807,11.648-5.388c1.933-1.919,8.462-8.172,11.453-16.338c2.976-8.141,2.033-15.717,2.222-15.502
						c0.352-0.121-1.323-27.562-1.576-32.805C322.824,317.9,321.478,315.175,319.051,310.911z"/>
				</g>
			</g>
		</g>
	</g>
	<g>
		<g>
			<g>
				<g>
					<path fill="#5B554F" d="M133.5,130.5c2.146,7.532,8.28,10.799,16.245,13.031c4.834,1.174,17.703,3.849,30.959,4.526
						c13.102,0.36,24.457-2.655,24.458-2.515c0.439,0.924,44.124-12.575,51.958-18.281c7.601-3.879,11.087-7.823,15.381-13.761
						c-7.204,1.884-11.612,3.207-18.908,6.803c-7.194,5.234-50.019,18.606-50.068,17.612c0.021-0.127-10.775,2.658-22.617,2.295
						c-11.567-0.557-25.391-3.305-29.289-4.251C143.964,133.695,139.453,134.483,133.5,130.5z"/>
				</g>
			</g>
		</g>
	</g>
	<g>
		<g>
			<g>
				<g>
					<path fill="#5B554F" d="M137.5,103.5c6.037,4.181,10.308,6.687,18.458,8.573c4.404,1.03,17.758,3.871,30.297,5.097
						c12.52,1.391,24.095,0.858,24.083,0.861c-0.025-0.075,11.604-0.139,24.097-3.224c12.594-2.787,25.14-9.64,28.919-12.376
						c7.173-4.849,10.08-9.286,13.146-15.931c-6.645,3.17-10.809,5.063-17.403,9.395c-3.489,2.44-14.873,8.682-26.524,11.287
						c-11.544,2.876-22.563,2.987-22.534,3.055c0.008-0.006-10.923,0.477-22.977-0.875c-12.053-1.191-25.087-3.957-29.414-4.904
						C149.648,102.729,144.827,102.868,137.5,103.5z"/>
				</g>
			</g>
		</g>
	</g>
</g>
</svg>
